<svg xmlns="http://www.w3.org/2000/svg" xmlns:xlink="http://www.w3.org/1999/xlink" width="1080" zoomAndPan="magnify" viewBox="0 0 810 809.999993" height="1080" preserveAspectRatio="xMidYMid meet" version="1.0"><defs><g/></defs><rect x="-81" width="972" fill="#ffffff" y="-80.999999" height="971.999992" fill-opacity="1"/><rect x="-81" width="972" fill="#ffffff" y="-80.999999" height="971.999992" fill-opacity="1"/><g fill="#60166b" fill-opacity="1"><g transform="translate(15.445315, 550.907102)"><g><path d="M 103.1875 85.484375 C 86.15625 85.484375 73.046875 80.320312 63.859375 70 C 54.679688 59.675781 50.09375 45.191406 50.09375 26.546875 L 50.09375 -46.0625 C 50.09375 -61.75 46.570312 -73.445312 39.53125 -81.15625 C 32.488281 -88.875 21.59375 -93.066406 6.84375 -93.734375 L 6.84375 -119.28125 C 21.457031 -119.820312 32.316406 -123.945312 39.421875 -131.65625 C 46.535156 -139.363281 50.09375 -151.066406 50.09375 -166.765625 L 50.09375 -239.578125 C 50.09375 -258.484375 54.550781 -273.03125 63.46875 -283.21875 C 72.382812 -293.414062 85.625 -298.515625 103.1875 -298.515625 L 130.34375 -298.515625 L 130.34375 -272.5625 L 117.671875 -272.5625 C 105.472656 -272.5625 96.789062 -268.972656 91.625 -261.796875 C 86.457031 -254.628906 83.875 -243.800781 83.875 -229.3125 L 83.875 -157.703125 C 83.875 -145.097656 80.320312 -134.203125 73.21875 -125.015625 C 66.113281 -115.828125 56.660156 -109.828125 44.859375 -107.015625 L 44.859375 -106.609375 C 56.796875 -103.796875 66.28125 -97.828125 73.3125 -88.703125 C 80.351562 -79.585938 83.875 -68.523438 83.875 -55.515625 L 83.875 16.296875 C 83.875 30.503906 86.457031 41.265625 91.625 48.578125 C 96.789062 55.890625 105.472656 59.546875 117.671875 59.546875 L 130.34375 59.546875 L 130.34375 85.484375 Z M 103.1875 85.484375 "/></g></g><g transform="translate(153.038521, 550.907102)"><g><path d="M 234.75 0 L 202.359375 -82.875 L 73.21875 -82.875 L 40.640625 0 L 0.796875 0 L 116.46875 -283.421875 L 160.125 -283.421875 L 273.96875 0 Z M 137.796875 -254.46875 L 135.984375 -248.828125 C 132.628906 -237.703125 127.664062 -223.421875 121.09375 -205.984375 L 84.890625 -112.84375 L 190.890625 -112.84375 L 154.484375 -206.390625 C 150.734375 -215.640625 146.976562 -226.097656 143.21875 -237.765625 Z M 137.796875 -254.46875 "/></g></g><g transform="translate(427.822609, 550.907102)"><g><path d="M 33.796875 0 L 33.796875 -283.421875 L 72.21875 -283.421875 L 72.21875 -31.375 L 215.4375 -31.375 L 215.4375 0 Z M 33.796875 0 "/></g></g><g transform="translate(656.943454, 550.907102)"><g><path d="M 18.90625 59.546875 C 31.113281 59.546875 39.863281 55.890625 45.15625 48.578125 C 50.457031 41.265625 53.109375 30.503906 53.109375 16.296875 L 53.109375 -55.515625 C 53.109375 -68.660156 56.59375 -79.789062 63.5625 -88.90625 C 70.539062 -98.03125 79.992188 -103.929688 91.921875 -106.609375 L 91.921875 -107.015625 C 80.390625 -109.691406 71.035156 -115.554688 63.859375 -124.609375 C 56.691406 -133.660156 53.109375 -144.691406 53.109375 -157.703125 L 53.109375 -229.3125 C 53.109375 -243.800781 50.457031 -254.628906 45.15625 -261.796875 C 39.863281 -268.972656 31.113281 -272.5625 18.90625 -272.5625 L 6.84375 -272.5625 L 6.84375 -298.515625 L 33.390625 -298.515625 C 50.960938 -298.515625 64.207031 -293.414062 73.125 -283.21875 C 82.039062 -273.03125 86.5 -258.484375 86.5 -239.578125 L 86.5 -166.765625 C 86.5 -151.203125 90.050781 -139.53125 97.15625 -131.75 C 104.257812 -123.976562 115.253906 -119.820312 130.140625 -119.28125 L 130.140625 -93.734375 C 115.128906 -93.203125 104.101562 -89.046875 97.0625 -81.265625 C 90.019531 -73.484375 86.5 -61.75 86.5 -46.0625 L 86.5 26.546875 C 86.5 45.054688 81.90625 59.503906 72.71875 69.890625 C 63.53125 80.285156 50.421875 85.484375 33.390625 85.484375 L 6.84375 85.484375 L 6.84375 59.546875 Z M 18.90625 59.546875 "/></g></g></g></svg>